<svg xmlns="http://www.w3.org/2000/svg" xmlns:xlink="http://www.w3.org/1999/xlink" width="864" zoomAndPan="magnify" viewBox="0 0 648 647.999998" height="864" preserveAspectRatio="xMidYMid meet" version="1.0"><path fill="#ffbb98" d="M 320.324219 398.15625 C 320.324219 398.15625 341.050781 350.671875 341.050781 350.671875 C 341.050781 350.671875 347.042969 336.074219 360.90625 342.148438 C 374.765625 348.222656 368.289062 362.089844 368.289062 362.089844 C 368.289062 362.089844 333.992188 443.71875 333.992188 443.71875 " fill-opacity="1" fill-rule="nonzero"/><path fill="#ffbb98" d="M 504.496094 196.65625 C 504.496094 275.480469 440.558594 339.378906 361.6875 339.378906 C 282.820312 339.378906 218.882812 275.480469 218.882812 196.65625 C 218.882812 117.835938 282.820312 53.9375 361.6875 53.9375 C 440.558594 53.9375 504.496094 117.835938 504.496094 196.65625 Z M 504.496094 196.65625 " fill-opacity="1" fill-rule="nonzero"/><path fill="#ffbb98" d="M 491.101562 196.488281 C 491.101562 267.828125 433.234375 325.65625 361.855469 325.65625 C 290.476562 325.65625 232.609375 267.828125 232.609375 196.488281 C 232.609375 125.152344 290.476562 67.320312 361.855469 67.320312 C 433.234375 67.320312 491.101562 125.152344 491.101562 196.488281 Z M 491.101562 196.488281 " fill-opacity="1" fill-rule="nonzero"/><path stroke-linecap="round" transform="matrix(0.569531, 0, 0, 0.569531, 363.895091, 195.054136)" fill="none" stroke-linejoin="round" d="M 250.739766 0.000968216 C 250.739766 138.396035 138.483247 250.590826 -0.000983027 250.590826 C -138.485213 250.590826 -250.741732 138.396035 -250.741732 0.000968216 C -250.741732 -138.400957 -138.485213 -250.595748 -0.000983027 -250.595748 C 138.483247 -250.595748 250.739766 -138.400957 250.739766 0.000968216 Z M 250.739766 0.000968216 " stroke="#183e55" stroke-width="10" stroke-opacity="1" stroke-miterlimit="4"/><path stroke-linecap="round" transform="matrix(0.569531, 0, 0, 0.569531, 364.062525, 194.886719)" fill="none" stroke-linejoin="round" d="M 226.934121 -0.000000927461 C 226.934121 125.253776 125.329179 226.796989 -0.0000433814 226.796989 C -125.329266 226.796989 -226.934208 125.253776 -226.934208 -0.000000927461 C -226.934208 -125.253778 -125.329266 -226.796991 -0.0000433814 -226.796991 C 125.329179 -226.796991 226.934121 -125.253778 226.934121 -0.000000927461 Z M 226.934121 -0.000000927461 " stroke="#183e55" stroke-width="10" stroke-opacity="1" stroke-miterlimit="4"/><path stroke-linecap="round" transform="matrix(0.569531, 0, 0, 0.569531, 342.219274, 383.083157)" fill="none" stroke-linejoin="round" d="M -46.989947 17.261398 C -46.989947 17.261398 -12.216283 -60.632981 -12.216283 -60.632981 C -12.216283 -60.632981 -1.688162 -86.257124 22.646544 -75.598687 C 46.988108 -64.933392 35.616366 -40.584969 35.616366 -40.584969 C 35.616366 -40.584969 -17.991318 86.260029 -17.991318 86.260029 " stroke="#183e55" stroke-width="8" stroke-opacity="1" stroke-miterlimit="4"/><path fill="#ffbb98" d="M 321.667969 523.136719 C 321.667969 523.136719 339.324219 543.269531 336.78125 557.707031 C 333.519531 576.234375 322.839844 582.460938 322.839844 582.460938 C 322.839844 582.460938 337.425781 585.503906 335.246094 593.957031 C 335.246094 593.957031 295 593.957031 295 593.957031 C 295 593.957031 307.515625 567.566406 311.511719 559.113281 C 315.355469 550.984375 294.902344 529.402344 294.902344 529.402344 " fill-opacity="1" fill-rule="nonzero"/><path stroke-linecap="round" transform="matrix(0.569531, 0, 0, 0.569531, 326.22573, 558.547795)" fill="none" stroke-linejoin="round" d="M 7.998719 -62.175829 C 7.998719 -62.175829 39.000092 -26.826033 34.535071 -1.476238 C 28.808048 31.054627 10.056332 41.987412 10.056332 41.987412 C 10.056332 41.987412 35.666759 47.330348 31.839598 62.172598 C 31.839598 62.172598 -38.825699 62.172598 -38.825699 62.172598 C -38.825699 62.172598 -16.85039 15.835148 -9.833929 0.992898 C -3.084957 -13.280079 -38.997167 -51.174457 -38.997167 -51.174457 " stroke="#183e55" stroke-width="8" stroke-opacity="1" stroke-miterlimit="4"/><path fill="#ffbb98" d="M 240.570312 545.835938 C 240.570312 545.835938 319.058594 526.742188 319.058594 526.742188 C 335.382812 522.769531 345.394531 506.320312 341.425781 489.996094 C 341.425781 489.996094 322.898438 413.859375 322.898438 413.859375 C 318.929688 397.535156 302.480469 387.523438 286.15625 391.496094 C 286.15625 391.496094 207.664062 410.589844 207.664062 410.589844 C 191.34375 414.5625 181.332031 431.011719 185.300781 447.335938 C 185.300781 447.335938 203.824219 523.472656 203.824219 523.472656 C 207.796875 539.796875 224.246094 549.808594 240.570312 545.835938 Z M 240.570312 545.835938 " fill-opacity="1" fill-rule="nonzero"/><path fill="#ffbb98" d="M 246.046875 538.074219 C 246.046875 538.074219 239.730469 564.09375 226.457031 570.316406 C 209.421875 578.304688 198.1875 573.148438 198.1875 573.148438 C 198.1875 573.148438 204.085938 586.832031 195.914062 589.910156 C 195.914062 589.910156 172.769531 556.984375 172.769531 556.984375 C 172.769531 556.984375 201.5625 552.046875 210.773438 550.453125 C 219.632812 548.921875 225.527344 519.777344 225.527344 519.777344 " fill-opacity="1" fill-rule="nonzero"/><path stroke-linecap="round" transform="matrix(0.569531, 0, 0, 0.569531, 215.787911, 568.892755)" fill="none" stroke-linejoin="round" d="M 66.325756 -47.020202 C 66.325756 -47.020202 51.236592 4.667043 27.930693 15.592969 C -1.973286 29.612174 -21.698938 20.558676 -21.698938 20.558676 C -21.698938 20.558676 -11.349144 44.58474 -25.690708 49.989404 C -25.690708 49.989404 -66.328569 -7.815811 -66.328569 -7.815811 C -66.328569 -7.815811 -15.779871 -16.49208 0.392969 -19.283575 C 15.955384 -21.97219 20.002023 -49.990023 20.002023 -49.990023 " stroke="#183e55" stroke-width="8" stroke-opacity="1" stroke-miterlimit="4"/><path fill="#ffbb98" d="M 220.34375 474.925781 C 220.34375 474.925781 170.164062 519.46875 170.164062 519.46875 C 170.164062 519.46875 158.585938 530.191406 148.566406 518.847656 C 138.546875 507.507812 150.257812 497.652344 150.257812 497.652344 C 150.257812 497.652344 215.710938 438.023438 215.710938 438.023438 " fill-opacity="1" fill-rule="nonzero"/><path stroke-linecap="round" transform="matrix(0.569531, 0, 0, 0.569531, 174.363056, 499.04203)" fill="none" stroke-linejoin="round" d="M 54.739767 -3.345402 C 54.739767 -3.345402 0.782289 43.520169 0.782289 43.520169 C 0.782289 43.520169 -19.54693 62.34733 -37.146381 42.429634 C -54.738975 22.518796 -34.17656 5.214269 -34.17656 5.214269 C -34.17656 5.214269 40.73428 -62.344032 40.73428 -62.344032 " stroke="#183e55" stroke-width="8" stroke-opacity="1" stroke-miterlimit="4"/><path stroke-linecap="round" transform="matrix(0.569531, 0, 0, 0.569531, 268.85114, 465.184511)" fill="none" stroke-linejoin="round" d="M -39.951249 135.485362 C -39.951249 135.485362 97.723653 101.987419 97.723653 101.987419 C 124.71268 95.423632 141.269608 68.221985 134.698963 41.232958 C 134.698963 41.232958 100.700333 -98.506415 100.700333 -98.506415 C 94.136547 -125.495442 66.941759 -142.045511 39.952732 -135.481725 C 39.952732 -135.481725 -97.72217 -101.983782 -97.72217 -101.983782 C -124.711197 -95.419995 -141.268125 -68.218348 -134.69748 -41.23618 C -134.69748 -41.23618 -100.705709 98.503194 -100.705709 98.503194 C -94.135064 125.492221 -66.940276 142.049148 -39.951249 135.485362 Z M -39.951249 135.485362 " stroke="#183e55" stroke-width="8" stroke-opacity="1" stroke-miterlimit="4"/><path stroke-linecap="round" transform="matrix(0.569531, 0, 0, 0.569531, 294.610476, 444.349344)" fill="none" stroke-linejoin="round" d="M 16.486408 -10.647683 C 16.486408 -10.647683 18.235379 2.575912 1.136613 6.382496 C -18.040342 10.648614 -18.232386 -2.924774 -18.232386 -2.924774 " stroke="#183e55" stroke-width="8" stroke-opacity="1" stroke-miterlimit="4"/><path stroke-linecap="round" transform="matrix(0.569531, 0, 0, 0.569531, 274.166005, 429.932809)" fill="none" stroke-linejoin="round" d="M -17.499981 -3.99725 C -17.499981 -3.99725 0.497276 6.997263 17.50002 -7.001365 " stroke="#183e55" stroke-width="8" stroke-opacity="1" stroke-miterlimit="4"/><path stroke-linecap="round" transform="matrix(0.569531, 0, 0, 0.569531, 309.344812, 424.216993)" fill="none" stroke-linejoin="round" d="M -17.217229 -0.991428 C -17.217229 -0.991428 1.904857 7.911179 17.220358 -7.911867 " stroke="#183e55" stroke-width="8" stroke-opacity="1" stroke-miterlimit="4"/><path stroke-linecap="round" transform="matrix(0.569531, 0, 0, 0.569531, 272.172644, 414.270697)" fill="none" stroke-linejoin="round" d="M -13.999979 7.501382 C -13.999979 7.501382 -3.999979 -7.498619 13.997278 1.50001 " stroke="#183e55" stroke-width="8" stroke-opacity="1" stroke-miterlimit="4"/><path stroke-linecap="round" transform="matrix(0.569531, 0, 0, 0.569531, 303.496862, 412.277354)" fill="none" stroke-linejoin="round" d="M -11.997234 -0.0000172059 C -11.997234 -0.0000172059 3.99728 4.999983 12.001395 -5.000017 " stroke="#183e55" stroke-width="8" stroke-opacity="1" stroke-miterlimit="4"/><path stroke-linecap="round" transform="matrix(0.569531, 0, 0, 0.569531, 16.453125, 16.453144)" fill="none" stroke-linejoin="round" d="M 611.008251 155.21945 C 611.008251 155.21945 610.00002 329.999977 610.00002 329.999977 " stroke="#183e55" stroke-width="12" stroke-opacity="1" stroke-miterlimit="4"/><path stroke-linecap="round" transform="matrix(0.569531, 0, 0, 0.569531, 390.131086, 220.646597)" fill="none" stroke-linejoin="round" d="M 45.887807 28.47374 C 45.887807 28.47374 -45.881744 -28.474136 -45.881744 -28.474136 " stroke="#183e55" stroke-width="12" stroke-opacity="1" stroke-miterlimit="4"/></svg>