<svg xmlns="http://www.w3.org/2000/svg" xmlns:xlink="http://www.w3.org/1999/xlink" width="432" zoomAndPan="magnify" viewBox="0 0 324 323.999988" height="432" preserveAspectRatio="xMidYMid meet" version="1.0"><path fill="#ffbb98" d="M 324 162 C 324 251.4375 251.4375 324 162 324 C 72.5625 324 0 251.4375 0 162 C 0 72.5625 72.5625 0 162 0 C 251.4375 0 324 72.5625 324 162 Z M 324 162 " fill-opacity="1" fill-rule="evenodd"/><path fill="#ffffff" d="M 43.261719 220.984375 C 64.96875 264.554688 109.996094 294.546875 162 294.546875 C 214.082031 294.546875 259.109375 264.554688 280.816406 220.910156 C 283.117188 216.152344 235.175781 176.726562 162 176.726562 C 88.824219 176.726562 40.882812 216.152344 43.261719 220.984375 Z M 43.261719 220.984375 " fill-opacity="1" fill-rule="evenodd"/><path fill="#ffffff" d="M 220.910156 88.363281 C 220.910156 120.886719 194.523438 147.273438 162 147.273438 C 129.476562 147.273438 103.089844 120.886719 103.089844 88.363281 C 103.089844 55.839844 129.476562 29.453125 162 29.453125 C 194.523438 29.453125 220.910156 55.839844 220.910156 88.363281 Z M 220.910156 88.363281 " fill-opacity="1" fill-rule="evenodd"/></svg>